[Header]
FileType HTR
DataType HTRS
FileVersion 1
NumSegments 64
NumFrames 2
DataFrameRate 30
EulerRotationOrder ZYX
CalibrationUnits mm
RotationUnits Degrees
GlobalAxisofGravity Y
BoneLengthAxis Y
ScaleFactor 1.0
[SegmentNames&Hierarchy]
Hips	GLOBAL
Spine	Hips
Spine1	Spine
Spine2	Spine1
Neck	Spine2
Head	Neck
LeftEye	Head
RightEye	Head
LeftShoulder	Spine2
LeftArm	LeftShoulder
LeftForeArm	LeftArm
LeftHand	LeftForeArm
LeftHandThumb1	LeftHand
LeftHandThumb2	LeftHandThumb1
LeftHandThumb3	LeftHandThumb2
LeftHandThumb4	LeftHandThumb3
LeftHandIndex1	LeftHand
LeftHandIndex2	LeftHandIndex1
LeftHandIndex3	LeftHandIndex2
LeftHandIndex4	LeftHandIndex3
LeftHandMiddle1	LeftHand
LeftHandMiddle2	LeftHandMiddle1
LeftHandMiddle3	LeftHandMiddle2
LeftHandMiddle4	LeftHandMiddle3
LeftHandRing1	LeftHand
LeftHandRing2	LeftHandRing1
LeftHandRing3	LeftHandRing2
LeftHandRing4	LeftHandRing3
LeftHandPinky1	LeftHand
LeftHandPinky2	LeftHandPinky1
LeftHandPinky3	LeftHandPinky2
LeftHandPinky4	LeftHandPinky3
RightShoulder	Spine2
RightArm	RightShoulder
RightForeArm	RightArm
RightHand	RightForeArm
RightHandPinky1	RightHand
RightHandPinky2	RightHandPinky1
RightHandPinky3	RightHandPinky2
RightHandPinky4	RightHandPinky3
RightHandRing1	RightHand
RightHandRing2	RightHandRing1
RightHandRing3	RightHandRing2
RightHandRing4	RightHandRing3
RightHandMiddle1	RightHand
RightHandMiddle2	RightHandMiddle1
RightHandMiddle3	RightHandMiddle2
RightHandMiddle4	RightHandMiddle3
RightHandIndex1	RightHand
RightHandIndex2	RightHandIndex1
RightHandIndex3	RightHandIndex2
RightHandIndex4	RightHandIndex3
RightHandThumb1	RightHand
RightHandThumb2	RightHandThumb1
RightHandThumb3	RightHandThumb2
RightHandThumb4	RightHandThumb3
LeftUpLeg	Hips
LeftLeg	LeftUpLeg
LeftFoot	LeftLeg
LeftToeBase	LeftFoot
RightUpLeg	Hips
RightLeg	RightUpLeg
RightFoot	RightLeg
RightToeBase	RightFoot
[BasePosition]
Hips	0	0	0	0	0	0	1
Spine	0	0	0	0	0	0	1
Spine1	0	0	0	0	0	0	1
Spine2	0	0	0	0	0	0	1
Neck	0	0	0	0	0	0	1
Head	0	0	0	0	0	0	1
LeftEye	0	0	0	0	0	0	1
RightEye	0	0	0	0	0	0	1
LeftShoulder	0	0	0	0	0	0	1
LeftArm	0	0	0	0	0	0	1
LeftForeArm	0	0	0	0	0	0	1
LeftHand	0	0	0	0	0	0	1
LeftHandThumb1	0	0	0	0	0	0	1
LeftHandThumb2	0	0	0	0	0	0	1
LeftHandThumb3	0	0	0	0	0	0	1
LeftHandThumb4	0	0	0	0	0	0	1
LeftHandIndex1	0	0	0	0	0	0	1
LeftHandIndex2	0	0	0	0	0	0	1
LeftHandIndex3	0	0	0	0	0	0	1
LeftHandIndex4	0	0	0	0	0	0	1
LeftHandMiddle1	0	0	0	0	0	0	1
LeftHandMiddle2	0	0	0	0	0	0	1
LeftHandMiddle3	0	0	0	0	0	0	1
LeftHandMiddle4	0	0	0	0	0	0	1
LeftHandRing1	0	0	0	0	0	0	1
LeftHandRing2	0	0	0	0	0	0	1
LeftHandRing3	0	0	0	0	0	0	1
LeftHandRing4	0	0	0	0	0	0	1
LeftHandPinky1	0	0	0	0	0	0	1
LeftHandPinky2	0	0	0	0	0	0	1
LeftHandPinky3	0	0	0	0	0	0	1
LeftHandPinky4	0	0	0	0	0	0	1
RightShoulder	0	0	0	0	0	0	1
RightArm	0	0	0	0	0	0	1
RightForeArm	0	0	0	0	0	0	1
RightHand	0	0	0	0	0	0	1
RightHandPinky1	0	0	0	0	0	0	1
RightHandPinky2	0	0	0	0	0	0	1
RightHandPinky3	0	0	0	0	0	0	1
RightHandPinky4	0	0	0	0	0	0	1
RightHandRing1	0	0	0	0	0	0	1
RightHandRing2	0	0	0	0	0	0	1
RightHandRing3	0	0	0	0	0	0	1
RightHandRing4	0	0	0	0	0	0	1
RightHandMiddle1	0	0	0	0	0	0	1
RightHandMiddle2	0	0	0	0	0	0	1
RightHandMiddle3	0	0	0	0	0	0	1
RightHandMiddle4	0	0	0	0	0	0	1
RightHandIndex1	0	0	0	0	0	0	1
RightHandIndex2	0	0	0	0	0	0	1
RightHandIndex3	0	0	0	0	0	0	1
RightHandIndex4	0	0	0	0	0	0	1
RightHandThumb1	0	0	0	0	0	0	1
RightHandThumb2	0	0	0	0	0	0	1
RightHandThumb3	0	0	0	0	0	0	1
RightHandThumb4	0	0	0	0	0	0	1
LeftUpLeg	0	0	0	0	0	0	1
LeftLeg	0	0	0	0	0	0	1
LeftFoot	0	0	0	0	0	0	1
LeftToeBase	0	0	0	0	0	0	1
RightUpLeg	0	0	0	0	0	0	1
RightLeg	0	0	0	0	0	0	1
RightFoot	0	0	0	0	0	0	1
RightToeBase	0	0	0	0	0	0	1
[Hips]
1	3.023115158	1026.577881	14.86990547	-3.260456324	-6.35094738	-4.324017525	1.0
2	1.857520938	1025.639771	7.417998314	-2.786045074	-2.510668516	-3.971288443	1.0
[Spine]
1	0	101.8159943	1.315000057	3.376549482	1.369664788	3.933596849	1.0
2	0	101.8159943	1.315000057	3.475805283	1.614120126	3.991051912	1.0
[Spine1]
1	0	100.8349991	-10.00800037	1.168151021	0.3235457242	1.697925925	1.0
2	0	100.8349991	-10.00800037	1.265149236	0.4710065424	1.71724844	1.0
[Spine2]
1	0	91	-13.73399925	1.14268291	0.349711448	1.703832865	1.0
2	0	91	-13.73399925	1.235358357	0.4992361069	1.668808103	1.0
[Neck]
1	0	166.7169952	-25.16200066	5.625520229	-0.1231579781	0.4447531104	1.0
2	0	166.7169952	-25.16200066	5.539721966	0.6514263153	0.1406287551	1.0
[Head]
1	0	96.17900085	16.84999847	-7.567391872	1.353142262	-0.2609963119	1.0
2	0	96.17900085	16.84999847	-7.930336952	3.563981056	-1.17974925	1.0
[LeftEye]
1	30.6760006	64.09500122	92.83599854	0	0	0	1.0
2	30.6760006	64.09500122	92.83599854	0	0	0	1.0
[RightEye]
1	-30.6760006	64.09500122	92.83499908	0	0	0	1.0
2	-30.6760006	64.09500122	92.83499908	0	0	0	1.0
[LeftShoulder]
1	45.70400238	109.4599991	-26.28000069	4.903662205	-16.79105949	-13.20455456	1.0
2	45.70400238	109.4599991	-26.28000069	4.953742027	-16.90527153	-13.47601795	1.0
[LeftArm]
1	105.923996	-5.24600029	-22.32099915	20.12804604	-3.088276863	-71.00372314	1.0
2	105.923996	-5.24600029	-22.32099915	19.61147499	-4.594536304	-70.25240326	1.0
[LeftForeArm]
1	278.414978	-0.0009999999311	0	-2.930453775e-06	-1.459357142	-0.0002011379111	1.0
2	278.414978	-0.0009999999311	0	-9.142544513e-06	-2.204920292	-0.0001953305327	1.0
[LeftHand]
1	283.2879944	0	0	-32.9553566	-4.523304939	-4.439644814	1.0
2	283.2879944	0	0	-32.71593857	-4.997660637	-2.743173122	1.0
[LeftHandThumb1]
1	24.6609993	-15.75	26.8239994	-0.4889881611	2.201389551	4.818526268	1.0
2	24.6609993	-15.75	26.8239994	-0.4889881611	2.201389551	4.818526268	1.0
[LeftHandThumb2]
1	32.29800034	-18.64699936	18.64699936	19.88971138	19.97311211	23.2711792	1.0
2	32.29800034	-18.64699936	18.64699936	19.69214058	20.00937843	23.21716881	1.0
[LeftHandThumb3]
1	26.52600098	-15.31499958	15.31499958	-13.14391994	5.553330898	7.952866077	1.0
2	26.52600098	-15.31499958	15.31499958	-13.14917755	5.650192261	7.94639349	1.0
[LeftHandThumb4]
1	19.54599953	-11.28499985	11.28499985	0	0	0	1.0
2	19.54599953	-11.28499985	11.28499985	0	0	0	1.0
[LeftHandIndex1]
1	91.09299469	-5.170999527	22.60099792	0.1380006969	-0.9618671536	-7.594499588	1.0
2	91.09299469	-5.170999527	22.60099792	0.1340655535	-0.9752408862	-7.661322594	1.0
[LeftHandIndex2]
1	36.76399994	0	0	-0.2673251033	1.747157574	-17.39689636	1.0
2	36.76399994	0	0	-0.2673263252	1.747157574	-17.39691353	1.0
[LeftHandIndex3]
1	28.83100128	0	0	-0.05772158131	0.81940341	-8.058767319	1.0
2	28.83100128	0	0	-0.05772065744	0.8194026351	-8.058766365	1.0
[LeftHandIndex4]
1	23.92700005	0	0	0	0	0	1.0
2	23.92700005	0	0	0	0	0	1.0
[LeftHandMiddle1]
1	95.33399963	0	0	-0.7942890525	2.538621187	-15.71738052	1.0
2	95.33399963	0	0	-0.7992566228	2.468701124	-15.7932682	1.0
[LeftHandMiddle2]
1	36.98199844	0	0	-0.2676878273	1.748309851	-17.40871811	1.0
2	36.98199844	0	0	-0.267821461	1.748741984	-17.41315842	1.0
[LeftHandMiddle3]
1	29.50900078	0	0	-0.2993015349	1.846071601	-18.41684151	1.0
2	29.50900078	0	0	-0.2994500399	1.846523046	-18.4214592	1.0
[LeftHandMiddle4]
1	28.3390007	0	0	0	0	0	1.0
2	28.3390007	0	0	0	0	0	1.0
[LeftHandRing1]
1	91.04499817	-0.4390000105	-18.65100098	-1.184987068	3.430740595	-21.16680336	1.0
2	91.04499817	-0.4390000105	-18.65100098	-1.190011263	3.439013481	-21.23325157	1.0
[LeftHandRing2]
1	31.54000092	0	0	-0.3849340975	2.085561991	-20.91277122	1.0
2	31.54000092	0	0	-0.3859505355	2.088215828	-20.94067001	1.0
[LeftHandRing3]
1	29.37700081	0	0	-0.2818058729	1.792708874	-17.86577606	1.0
2	29.37700081	0	0	-0.2826799452	1.795411706	-17.89365196	1.0
[LeftHandRing4]
1	26.47500038	0	0	0	0	0	1.0
2	26.47500038	0	0	0	0	0	1.0
[LeftHandPinky1]
1	80.77799988	-4.887000084	-38.06099701	-1.710556626	5.355367661	-27.16539383	1.0
2	80.77799988	-4.887000084	-38.06099701	-1.71463871	5.317024708	-27.20954895	1.0
[LeftHandPinky2]
1	36	0	0	-0.2682368159	1.750061035	-17.42672157	1.0
2	36	0	0	-0.2682368159	1.750059485	-17.42672729	1.0
[LeftHandPinky3]
1	21.14200211	0	0	-0.2415002286	1.662530661	-16.52887726	1.0
2	21.14200211	0	0	-0.2414995432	1.662533283	-16.52886963	1.0
[LeftHandPinky4]
1	19.75699997	0	0	0	0	0	1.0
2	19.75699997	0	0	0	0	0	1.0
[RightShoulder]
1	-45.70000076	109.4620056	0	5.183711529	14.51022911	15.52839851	1.0
2	-45.70000076	109.4620056	0	5.186318398	14.58156776	15.28750229	1.0
[RightArm]
1	-105.9280014	-5.248000145	-22.32099915	30.23852921	2.220948219	62.62535095	1.0
2	-105.9280014	-5.248000145	-22.32099915	30.55390739	1.749255776	62.16448975	1.0
[RightForeArm]
1	-278.414978	0	0	1.863266789e-06	6.693532944	-1.427793791e-06	1.0
2	-278.414978	0	0	-7.927690604e-06	7.003857613	-4.589855962e-06	1.0
[RightHand]
1	-283.2879944	0	0.0009999999311	-20.07678795	1.855673671	6.545353889	1.0
2	-283.2879944	0	0.0009999999311	-20.44988823	1.747681856	6.492221355	1.0
[RightHandPinky1]
1	-80.76699829	-4.885000229	-38.06000137	-1.507178903	-4.696117401	26.5058918	1.0
2	-80.76699829	-4.885000229	-38.06000137	-1.53224206	-4.595580101	26.60036659	1.0
[RightHandPinky2]
1	-36	0	0.0009999999311	-0.2127638906	-1.388872266	17.43784142	1.0
2	-36	0	0.0009999999311	-0.2142390758	-1.393587708	17.49884796	1.0
[RightHandPinky3]
1	-21.14200211	0	0	-0.1919147819	-1.320604205	16.53641319	1.0
2	-21.14200211	0	0	-0.1932754219	-1.325160861	16.59521103	1.0
[RightHandPinky4]
1	-19.75699997	0	0	0	0	0	1.0
2	-19.75699997	0	0	0	0	0	1.0
[RightHandRing1]
1	-91.03599548	-0.4390000105	-18.65100098	-1.045234084	-2.883112192	20.47790146	1.0
2	-91.03599548	-0.4390000105	-18.65100098	-1.04980588	-2.865852118	20.5474453	1.0
[RightHandRing2]
1	-31.54000092	0	0	-0.3066616654	-1.658665895	20.94818687	1.0
2	-31.54000092	0	0	-0.3066551089	-1.65866828	20.94817734	1.0
[RightHandRing3]
1	-29.37700081	0	0	-0.2245208174	-1.425784349	17.89686012	1.0
2	-29.37700081	0	0	-0.224521786	-1.425783634	17.89686203	1.0
[RightHandRing4]
1	-26.47500038	0	0	0	0	0	1.0
2	-26.47500038	0	0	0	0	0	1.0
[RightHandMiddle1]
1	-95.32500458	0	0	-0.7017365694	-2.080689192	15.01578236	1.0
2	-95.32500458	0	0	-0.7070410252	-2.091843367	15.10450554	1.0
[RightHandMiddle2]
1	-36.98199844	0	0	-0.2136358619	-1.391662121	17.45431137	1.0
2	-36.98199844	0	0	-0.2136369348	-1.391664624	17.45429993	1.0
[RightHandMiddle3]
1	-29.50900078	0	0	-0.2388330996	-1.471394062	18.46359825	1.0
2	-29.50900078	0	0	-0.2388360202	-1.471384287	18.46358871	1.0
[RightHandMiddle4]
1	-28.3390007	0	0.0009999999311	0	0	0	1.0
2	-28.3390007	0	0.0009999999311	0	0	0	1.0
[RightHandIndex1]
1	-91.08300018	-5.167999744	22.60099792	0.1759923249	1.251929402	6.825706005	1.0
2	-91.08300018	-5.167999744	22.60099792	0.1744266301	1.273218989	6.860089779	1.0
[RightHandIndex2]
1	-36.76399994	0	0	-0.21259965	-1.388343334	17.41139984	1.0
2	-36.76399994	0	0	-0.2124286294	-1.387802124	17.40429306	1.0
[RightHandIndex3]
1	-28.83100128	0	0	-0.0458054319	-0.6504108906	8.057271004	1.0
2	-28.83100128	0	0	-0.04572776332	-0.6498432755	8.050182343	1.0
[RightHandIndex4]
1	-23.92700005	0	0	0	0	0	1.0
2	-23.92700005	0	0	0	0	0	1.0
[RightHandThumb1]
1	-24.64799881	-15.72700024	26.82600021	-1.658465981	-0.2891423702	-4.221325874	1.0
2	-24.64799881	-15.72700024	26.82600021	-1.658465981	-0.2891423702	-4.221325874	1.0
[RightHandThumb2]
1	-32.29800034	-18.64699936	18.64699936	22.25424385	-23.8877182	-24.28743935	1.0
2	-32.29800034	-18.64699936	18.64699936	22.2253418	-23.86389923	-24.26309967	1.0
[RightHandThumb3]
1	-26.52600098	-15.31399918	15.31399918	-14.49308777	-6.731801033	-11.36924267	1.0
2	-26.52600098	-15.31399918	15.31399918	-14.49307632	-6.73181057	-11.36925602	1.0
[RightHandThumb4]
1	-19.54599953	-11.28499985	11.28499985	0	0	0	1.0
2	-19.54599953	-11.28499985	11.28499985	0	0	0	1.0
[LeftUpLeg]
1	82.07800293	-67.51699829	-15.99599934	-12.6536665	35.00146484	6.992822647	1.0
2	82.07800293	-67.51699829	-15.99599934	-15.29469585	35.24161148	6.265136719	1.0
[LeftLeg]
1	0	-443.7049866	2.845999956	17.92663193	-8.624442101	3.112883091	1.0
2	0	-443.7049866	2.845999956	19.51558113	-8.576323509	1.355359435	1.0
[LeftFoot]
1	0	-444.2789917	-29.8219986	-1.191399574	-8.740393639	-5.232524872	1.0
2	0	-444.2789917	-29.8219986	0.2361862361	-11.14540577	-6.628081322	1.0
[LeftToeBase]
1	0	-87.28699493	107.1060028	-4.928524017	6.713923995e-08	2.86044542e-06	1.0
2	0	-87.28699493	107.1060028	-4.425920486	4.409508165e-06	-6.183729511e-07	1.0
[RightUpLeg]
1	-82.07800293	-67.51699829	-15.99599934	-2.94421649	-10.44257641	4.280815125	1.0
2	-82.07800293	-67.51699829	-15.99599934	-4.449887276	-14.15956211	4.086988926	1.0
[RightLeg]
1	0	-443.7049866	2.861999989	13.99891758	-8.812414169	-5.520423412	1.0
2	0	-443.7049866	2.861999989	15.10187721	-8.792415619	-5.717729568	1.0
[RightFoot]
1	0	-444.2770081	-29.83799934	-6.687803268	-1.311141014	3.941601515	1.0
2	0	-444.2770081	-29.83799934	-7.126251221	-1.299697042	3.862018347	1.0
[RightToeBase]
1	0	-87.28699493	107.1060028	-7.282875538	-4.238613656e-06	-5.244112344e-07	1.0
2	0	-87.28699493	107.1060028	-7.282876968	8.322288522e-06	-7.437635645e-07	1.0
[EndOfFile]
